<?xml version="1.0" encoding="UTF-8"?>
<svg version="1.1" xmlns="http://www.w3.org/2000/svg" width="269" height="67">
<path d="M0 0 C5.17859728 3.65548043 9.86941878 7.62493302 14.5 11.9375 C15.34244263 12.71855103 15.34244263 12.71855103 16.2019043 13.51538086 C18.63630124 15.77784608 21.05322542 18.05169007 23.4375 20.3671875 C24.4584375 21.33011719 24.4584375 21.33011719 25.5 22.3125 C26.0671875 22.86550781 26.634375 23.41851563 27.21875 23.98828125 C29.05803194 25.2668402 29.05803194 25.2668402 31.71875 24.66796875 C32.4715625 24.44753906 33.224375 24.22710938 34 24 C34 25.32 34 26.64 34 28 C33.34 28.66 32.68 29.32 32 30 C31.90970781 32.46349384 31.90970781 32.46349384 32.18359375 35.3125 C32.96817126 52.37065083 32.96817126 52.37065083 29.37353516 57.17285156 C24.45153116 61.37085832 17.90060209 65.14030943 11.28515625 64.90234375 C6.85192815 63.15178701 3.03137731 60.52632978 -1 58 C-4.63 60.64 -8.26 63.28 -12 66 C-16 64 -16 64 -18.4375 61.9375 C-21.08871521 59.93292265 -22.74294429 59.37223494 -26 59 C-25.02208496 58.18450684 -25.02208496 58.18450684 -24.02441406 57.35253906 C-21.52016164 54.44238755 -21.52886981 53.14311885 -21.609375 49.359375 C-21.62226562 48.28945313 -21.63515625 47.21953125 -21.6484375 46.1171875 C-21.68195313 45.00601563 -21.71546875 43.89484375 -21.75 42.75 C-21.76804687 41.62335937 -21.78609375 40.49671875 -21.8046875 39.3359375 C-21.85179778 36.55643104 -21.91756639 33.7786466 -22 31 C-22.66 30.67 -23.32 30.34 -24 30 C-24.99 30.33 -25.98 30.66 -27 31 C-27 29.68 -27 28.36 -27 27 C-24.8125 25.078125 -24.8125 25.078125 -22 23.25 C-21.071875 22.63640625 -20.14375 22.0228125 -19.1875 21.390625 C-18.465625 20.93171875 -17.74375 20.4728125 -17 20 C-13.16335525 21.5072533 -11.28787022 23.60263636 -9 27 C-8.45410156 30.04614258 -8.45410156 30.04614258 -8.390625 33.39453125 C-8.35839844 34.59658203 -8.32617188 35.79863281 -8.29296875 37.03710938 C-8.27878906 38.28298828 -8.26460937 39.52886719 -8.25 40.8125 C-8.22035156 42.07771484 -8.19070312 43.34292969 -8.16015625 44.64648438 C-8.08956223 47.76438676 -8.0368109 50.88154575 -8 54 C-5.50935112 54.68707555 -3.62113708 55 -1 55 C-1.04189453 54.23856689 -1.08378906 53.47713379 -1.12695312 52.69262695 C-1.29353639 49.2331249 -1.39736896 45.7744648 -1.5 42.3125 C-1.56703125 41.11431641 -1.6340625 39.91613281 -1.703125 38.68164062 C-1.89742737 29.96232198 -1.89742737 29.96232198 0.81640625 27.05224609 C2.84268965 25.78581897 4.75585015 24.81056314 7 24 C5.47065866 20.68071206 4.10190578 19.00122953 1 17 C0.67 17 0.34 17 0 17 C0 11.39 0 5.78 0 0 Z M11 25 C10.7674398 29.39494061 10.62549926 33.78830286 10.5 38.1875 C10.43296875 39.43337891 10.3659375 40.67925781 10.296875 41.96289062 C9.89983625 48.49546625 9.89983625 48.49546625 12.81640625 53.97900391 C14.84495892 55.24684932 16.74638221 56.20888361 19 57 C19.20448678 52.97992472 19.32802689 48.96119536 19.4375 44.9375 C19.49615234 43.80376953 19.55480469 42.67003906 19.61523438 41.50195312 C19.83048877 35.24304818 19.83048877 35.24304818 17.44580078 29.62939453 C15.71460185 27.87341994 14.04984342 26.36749276 12 25 C11.67 25 11.34 25 11 25 Z " fill="#FFFFFF" transform="translate(95,0)"/>
<path d="M0 0 C1.65 1.65 3.3 3.3 5 5 C9.82038201 5 11.27041234 3.65192214 15 0.8984375 C17 0 17 0 19.1015625 0.7109375 C21 2 21 2 23.375 4.25 C25.88664144 6.3598763 25.88664144 6.3598763 28.875 5.5 C32.37138081 3.82173721 35.67434114 1.99539532 39 0 C39.53109375 0.51691406 40.0621875 1.03382812 40.609375 1.56640625 C41.31578125 2.22511719 42.0221875 2.88382813 42.75 3.5625 C43.44609375 4.22378906 44.1421875 4.88507812 44.859375 5.56640625 C46.89019298 7.2653956 46.89019298 7.2653956 49.265625 6.71484375 C50.12414063 6.36099609 50.12414063 6.36099609 51 6 C51 7.32 51 8.64 51 10 C50.34 10.66 49.68 11.32 49 12 C48.72258755 14.23035297 48.72258755 14.23035297 48.8046875 16.7890625 C48.81435547 18.20058594 48.81435547 18.20058594 48.82421875 19.640625 C48.84097656 20.62546875 48.85773437 21.6103125 48.875 22.625 C48.88402344 23.61757813 48.89304688 24.61015625 48.90234375 25.6328125 C48.92595884 28.08878134 48.95889201 30.54427168 49 33 C50.83284443 34.12516085 50.83284443 34.12516085 53 35 C53.99 34.67 54.98 34.34 56 34 C56.40625 36.23046875 56.40625 36.23046875 56 39 C53.81483731 40.71991514 51.9060167 41.99444303 49.5 43.3125 C48.87996094 43.67150391 48.25992188 44.03050781 47.62109375 44.40039062 C46.09022045 45.28358676 44.54626292 46.14403303 43 47 C41.65555841 46.09970429 40.32468562 45.17911978 39 44.25 C37.88625 43.48429687 37.88625 43.48429687 36.75 42.703125 C36.1725 42.14109375 35.595 41.5790625 35 41 C35 37 35 37 36 36 C36.2794933 32.38267908 36.23179755 28.75183739 36.25 25.125 C36.270625 24.10535156 36.29125 23.08570312 36.3125 22.03515625 C36.31765625 21.05675781 36.3228125 20.07835938 36.328125 19.0703125 C36.3374707 18.17070801 36.34681641 17.27110352 36.35644531 16.34423828 C36.16414398 13.96958924 36.16414398 13.96958924 34.79199219 12.18310547 C32.4332711 10.62583539 30.76882344 10.7755008 28 11 C28.0807386 14.93834878 28.19359377 18.87513327 28.3125 22.8125 C28.34633789 24.49182617 28.34633789 24.49182617 28.38085938 26.20507812 C28.41630859 27.27822266 28.45175781 28.35136719 28.48828125 29.45703125 C28.51446533 30.44678955 28.54064941 31.43654785 28.56762695 32.45629883 C29.0629667 35.37044047 29.82809024 36.10838326 32 38 C32 38.66 32 39.32 32 40 C30.03125 41.7265625 30.03125 41.7265625 27.5 43.625 C26.6646875 44.25664063 25.829375 44.88828125 24.96875 45.5390625 C24.3190625 46.02117187 23.669375 46.50328125 23 47 C19.07699728 45.17495091 16.26212728 42.81729174 13 40 C14.875 36.125 14.875 36.125 16 35 C16.3062656 31.55039322 16.27834009 28.08653769 16.3125 24.625 C16.35600586 23.16707031 16.35600586 23.16707031 16.40039062 21.6796875 C16.40876953 20.74640625 16.41714844 19.813125 16.42578125 18.8515625 C16.44036377 17.99385254 16.45494629 17.13614258 16.4699707 16.25244141 C16.18614842 13.84826017 16.18614842 13.84826017 14.16088867 12.19677734 C11.97429658 10.75775358 11.97429658 10.75775358 9 11 C8.67 19.25 8.34 27.5 8 36 C9.32 36.66 10.64 37.32 12 38 C11.0919838 39.13199353 10.17316174 40.25532363 9.25 41.375 C8.73953125 42.00148437 8.2290625 42.62796875 7.703125 43.2734375 C6 45 6 45 2 47 C-1.3 44.36 -4.6 41.72 -8 39 C-7.01 37.68 -6.02 36.36 -5 35 C-4.57449221 32.54206323 -4.57449221 32.54206323 -4.671875 29.90234375 C-4.67960938 28.45311523 -4.67960938 28.45311523 -4.6875 26.97460938 C-4.708125 25.97236328 -4.72875 24.97011719 -4.75 23.9375 C-4.75515625 22.93138672 -4.7603125 21.92527344 -4.765625 20.88867188 C-4.78330817 15.35462593 -4.78330817 15.35462593 -6 10 C-7.65 10.33 -9.3 10.66 -11 11 C-11.33 10.01 -11.66 9.02 -12 8 C-8.04 5.36 -4.08 2.72 0 0 Z " fill="#FFFFFF" transform="translate(12,20)"/>
<path d="M0 0 C0 3.3 0 6.6 0 10 C3.3 10 6.6 10 10 10 C8 14 8 14 7 15 C4.66702567 15.04092937 2.33294775 15.04241723 0 15 C0.10988136 19.25053264 0.24051204 23.50018035 0.375 27.75 C0.4059375 28.9565625 0.436875 30.163125 0.46875 31.40625 C0.52675781 33.14648438 0.52675781 33.14648438 0.5859375 34.921875 C0.6173584 35.99018555 0.6487793 37.05849609 0.68115234 38.15917969 C0.99200148 40.92873598 1.57670532 42.63283621 3 45 C5.475 44.505 5.475 44.505 8 44 C8 44.99 8 45.98 8 47 C6.4470724 47.87144869 4.88214564 48.72153657 3.3125 49.5625 C2.44238281 50.03816406 1.57226562 50.51382813 0.67578125 51.00390625 C-2.45327646 52.16873795 -3.8711138 52.08267751 -7 51 C-8.66015625 49.7734375 -8.66015625 49.7734375 -10.0625 48.375 C-11.031875 47.59125 -12.00125 46.8075 -13 46 C-15.21858253 46.13641377 -15.21858253 46.13641377 -17 47 C-17.66 46.67 -18.32 46.34 -19 46 C-22.3 48.31 -25.6 50.62 -29 53 C-33 51 -33 51 -36 48.875 C-38.97570838 46.64666737 -38.97570838 46.64666737 -43 47 C-42.1875 45.0625 -42.1875 45.0625 -41 43 C-39.515 42.505 -39.515 42.505 -38 42 C-38.33 34.08 -38.66 26.16 -39 18 C-39.66 17.67 -40.32 17.34 -41 17 C-41.99 17.33 -42.98 17.66 -44 18 C-44 16.68 -44 15.36 -44 14 C-41.91796875 12.04296875 -41.91796875 12.04296875 -39.1875 10.1875 C-38.29417969 9.56230469 -37.40085938 8.93710937 -36.48046875 8.29296875 C-35.66191406 7.86628906 -34.84335938 7.43960937 -34 7 C-30.85215994 8.04928002 -29.12995675 9.20219664 -27.06103516 11.79785156 C-24.62398574 16.85587866 -25.21232857 22.87409348 -25.1875 28.375 C-25.16236328 29.68339844 -25.13722656 30.99179687 -25.11132812 32.33984375 C-25.05256253 35.56019823 -25.0162025 38.77919642 -25 42 C-24.01 42 -23.02 42 -22 42 C-21.01 42.04125 -20.02 42.0825 -19 42.125 C-15.81598187 42.25257391 -15.81598187 42.25257391 -13 40 C-12.56800509 37.80905414 -12.56800509 37.80905414 -12.671875 35.28125 C-12.67960937 33.88326172 -12.67960937 33.88326172 -12.6875 32.45703125 C-12.708125 31.48121094 -12.72875 30.50539063 -12.75 29.5 C-12.75773437 28.03626953 -12.75773437 28.03626953 -12.765625 26.54296875 C-12.63286103 21.60982441 -12.63286103 21.60982441 -14 17 C-14.99 16.67 -15.98 16.34 -17 16 C-15.33255693 11.73300282 -12.2490961 8.91765082 -9.0625 5.75 C-8.52431641 5.19570313 -7.98613281 4.64140625 -7.43164062 4.0703125 C-3.36634083 0 -3.36634083 0 0 0 Z " fill="#FFFFFF" transform="translate(222,13)"/>
<path d="M0 0 C2.31 1.98 4.62 3.96 7 6 C10.56521654 4.21739173 13.71455357 2.24007711 17 0 C17.59167969 0.51691406 18.18335938 1.03382812 18.79296875 1.56640625 C19.58316406 2.22511719 20.37335938 2.88382813 21.1875 3.5625 C22.35345703 4.55443359 22.35345703 4.55443359 23.54296875 5.56640625 C25.93359569 7.28448406 25.93359569 7.28448406 28.80078125 6.71484375 C29.52652344 6.47894531 30.25226563 6.24304688 31 6 C31 7.32 31 8.64 31 10 C30.34 10.66 29.68 11.32 29 12 C28.5476765 15.64753667 28.67593713 19.32763261 28.6875 23 C28.67138672 24.02351563 28.65527344 25.04703125 28.63867188 26.1015625 C28.63802734 27.07867187 28.63738281 28.05578125 28.63671875 29.0625 C28.63373779 29.96097656 28.63075684 30.85945313 28.62768555 31.78515625 C28.75054932 32.51605469 28.87341309 33.24695312 29 34 C31.71549154 36.30671915 31.71549154 36.30671915 34.1875 35.625 C34.785625 35.41875 35.38375 35.2125 36 35 C36.33 35.99 36.66 36.98 37 38 C35.23268551 39.3172344 33.46102239 40.62863588 31.6875 41.9375 C30.70136719 42.66839844 29.71523437 43.39929687 28.69921875 44.15234375 C26 46 26 46 23 47 C18.545 43.04 18.545 43.04 14 39 C14.66 38.01 15.32 37.02 16 36 C16.43379699 32.34762211 16.32421991 28.67536522 16.3125 25 C16.32861328 23.989375 16.34472656 22.97875 16.36132812 21.9375 C16.36197266 20.968125 16.36261719 19.99875 16.36328125 19 C16.36626221 18.113125 16.36924316 17.22625 16.37231445 16.3125 C16.15920878 13.95011073 16.15920878 13.95011073 14.72729492 12.125 C13.03150422 10.750419 13.03150422 10.750419 10.8125 11.3125 C9.9153125 11.6528125 9.9153125 11.6528125 9 12 C8.913015 15.77068832 8.85961421 19.54111932 8.8125 23.3125 C8.78736328 24.38435547 8.76222656 25.45621094 8.73632812 26.56054688 C8.72666016 27.58857422 8.71699219 28.61660156 8.70703125 29.67578125 C8.6913208 30.62364502 8.67561035 31.57150879 8.65942383 32.5480957 C9.05524357 35.39771408 9.77824719 36.24976105 12 38 C10.90101298 41.29696105 10.05402613 42.04670589 7.4375 44.1875 C6.79683594 44.71730469 6.15617187 45.24710938 5.49609375 45.79296875 C5.00238281 46.19128906 4.50867188 46.58960938 4 47 C1.00779732 45.63629701 -1.29026529 44.05091917 -3.75 41.875 C-4.36359375 41.33617187 -4.9771875 40.79734375 -5.609375 40.2421875 C-6.06828125 39.83226562 -6.5271875 39.42234375 -7 39 C-6.67402832 38.45182617 -6.34805664 37.90365234 -6.01220703 37.33886719 C-4.81329183 34.56858072 -4.77122881 32.58940683 -4.8046875 29.578125 C-4.81113281 28.55332031 -4.81757813 27.52851562 -4.82421875 26.47265625 C-4.84097656 25.40917969 -4.85773438 24.34570312 -4.875 23.25 C-4.88853516 21.63158203 -4.88853516 21.63158203 -4.90234375 19.98046875 C-4.92588695 17.32008722 -4.95877201 14.66015664 -5 12 C-7.33317216 11.22227595 -9.61435923 10.57584432 -12 10 C-12 9.34 -12 8.68 -12 8 C-10.02559073 6.5368217 -8.06761129 5.19286936 -6 3.875 C-5.42765625 3.50246094 -4.8553125 3.12992188 -4.265625 2.74609375 C-2.84778218 1.82449592 -1.42439275 0.91144179 0 0 Z " fill="#FFFFFF" transform="translate(141,20)"/>
<path d="M0 0 C1.50312477 2.07828493 2.85724824 4.12791551 4.1875 6.3125 C4.56841797 6.90740234 4.94933594 7.50230469 5.34179688 8.11523438 C6.31362948 9.69380094 7.16521849 11.34486531 8 13 C6.8711852 16.38644439 6.375747 16.68598077 3.47265625 18.48046875 C2.76302734 18.92197266 2.05339844 19.36347656 1.32226562 19.81835938 C0.57654297 20.27017578 -0.16917969 20.72199219 -0.9375 21.1875 C-1.67935547 21.65091797 -2.42121094 22.11433594 -3.18554688 22.59179688 C-8.72199466 26 -8.72199466 26 -11 26 C-9.55613418 29.71279784 -7.87763608 30.9486443 -4.375 32.75 C-3.55773437 33.17796875 -2.74046875 33.6059375 -1.8984375 34.046875 C-0.95871094 34.51867188 -0.95871094 34.51867188 0 35 C0.47050781 34.566875 0.94101562 34.13375 1.42578125 33.6875 C2.04839844 33.130625 2.67101562 32.57375 3.3125 32 C3.92738281 31.443125 4.54226563 30.88625 5.17578125 30.3125 C7 29 7 29 10 29 C10.495 30.485 10.495 30.485 11 32 C8.29158919 34.3789552 5.55532936 36.72335771 2.8125 39.0625 C2.04357422 39.73861328 1.27464844 40.41472656 0.48242188 41.11132812 C-0.26845703 41.74619141 -1.01933594 42.38105469 -1.79296875 43.03515625 C-2.4789917 43.6269165 -3.16501465 44.21867676 -3.87182617 44.82836914 C-6 46 -6 46 -8.62036133 45.79150391 C-12.38637656 44.53887013 -14.8183435 41.93055122 -17.71875 39.30078125 C-18.4715625 38.87152344 -19.224375 38.44226562 -20 38 C-22.76267322 38.67804963 -22.76267322 38.67804963 -25 40 C-25.33 38.68 -25.66 37.36 -26 36 C-25.01 35.34 -24.02 34.68 -23 34 C-22.49039309 31.48614741 -22.49039309 31.48614741 -22.48828125 28.5546875 C-22.43510742 26.94013672 -22.43510742 26.94013672 -22.38085938 25.29296875 C-22.35830078 24.16503906 -22.33574219 23.03710938 -22.3125 21.875 C-22.27833984 20.73933594 -22.24417969 19.60367188 -22.20898438 18.43359375 C-22.12630498 15.62249421 -22.05722063 12.81171447 -22 10 C-18.71158124 8.32686677 -15.41875318 6.66260393 -12.125 5 C-11.18785156 4.52304687 -10.25070313 4.04609375 -9.28515625 3.5546875 C-8.38925781 3.10351562 -7.49335938 2.65234375 -6.5703125 2.1875 C-5.74289551 1.76855469 -4.91547852 1.34960938 -4.06298828 0.91796875 C-2 0 -2 0 0 0 Z M-10 8 C-11.36532549 9.13701597 -11.36532549 9.13701597 -11.09765625 12.16015625 C-11.08605469 13.44792969 -11.07445312 14.73570313 -11.0625 16.0625 C-11.05347656 17.35285156 -11.04445312 18.64320312 -11.03515625 19.97265625 C-11.02355469 20.97167969 -11.01195312 21.97070312 -11 23 C-7.04 20.525 -7.04 20.525 -3 18 C-5.8814281 12.53073873 -5.8814281 12.53073873 -10 8 Z " fill="#FFFFFF" transform="translate(258,20)"/>
<path d="M0 0 C4.2742558 1.5830577 6.26531794 4.50568404 9 8 C7.46116172 12.61651485 3.88101136 14.41265909 0 17 C-2.31 14.36 -4.62 11.72 -7 9 C-5.04783565 5.09567131 -3.12613393 2.96160056 0 0 Z " fill="#FFFFFF" transform="translate(189,1)"/>
<path d="M0 0 C6.57142857 5 6.57142857 5 8 10 C5.36 12.31 2.72 14.62 0 17 C-6.57142857 12 -6.57142857 12 -8 7 C-5.36 4.69 -2.72 2.38 0 0 Z " fill="#FFFFFF" transform="translate(80,1)"/>
</svg>
